<svg width="24" height="24" viewBox="0 0 24 24" fill="none" xmlns="http://www.w3.org/2000/svg">
<path d="M12.866 3L22.392 19.5C22.4797 19.652 22.5259 19.8245 22.5259 20C22.5259 20.1755 22.4797 20.348 22.392 20.5C22.3042 20.652 22.178 20.7782 22.026 20.866C21.8739 20.9538 21.7015 21 21.526 21H2.47397C2.29844 21 2.126 20.9538 1.97398 20.866C1.82197 20.7782 1.69573 20.652 1.60797 20.5C1.5202 20.348 1.474 20.1755 1.474 20C1.474 19.8245 1.52021 19.652 1.60797 19.5L11.134 3C11.2217 2.84799 11.348 2.72177 11.5 2.63401C11.652 2.54625 11.8244 2.50005 12 2.50005C12.1755 2.50005 12.3479 2.54625 12.5 2.63401C12.652 2.72177 12.7782 2.84799 12.866 3ZM4.20597 19H19.794L12 5.5L4.20597 19ZM11 16H13V18H11V16ZM11 9H13V14H11V9Z" fill="#666666"/>
</svg>
