<svg xmlns="http://www.w3.org/2000/svg" clip-rule="evenodd" fill-rule="evenodd" stroke-linejoin="round" stroke-miterlimit="2" viewBox="0 0 1035 1035"><path d="m210.066 580.024c-18.008 53.956-32.491 101.441-42.682 136.258-11.023 37.651-17.044 60.504-17.044 60.504-32.989 111.567-53.307 193.804-56.595 207.319-2.189 6.934-10.986 9.514-18.337 12.088 20.263-81.566 40.962-159.56 61.753-229.37-89.095-49.473-120.006-142.155-88.603-174.327 3.17-3.251 6.259-5.486 9.302-7.259 27.766-16.128 50.283 22.918 67.562 5.832 19.168-18.962-121.717-105.95-101.793-170.703 1.153-3.753 2.506-6.894 4.004-9.612 21.4-38.779 75.698 22.254 102.979 4.314 20.624-13.56-82.83-87.802-74.333-188.082 1.584-18.67 6.338-32.322 13.294-42.109 34.791-48.99 126.001.299 166.507 22.807 48.615 27.011-11.743-46.918 5.213-108.139 1.903-6.882 6.099-15.34 12.563-22.684 17.168-19.51 50.893-30.914 104.324 17.894 33.065 30.204 44.55-110.296 127.409-88.675 2.681.697 5.193 1.479 7.572 2.333 2.206 1.225 4.457 2.593 6.748 4.144 70.947 47.954-26.988 149.349 17.522 154.237 68.178 7.494 81.859 29.877 79.106 50.228-1.248 9.208-5.849 17.992-10.299 24.788-34.785 53.155-141.904 103.259-89.522 121.942 49.713 17.724 155.894 27.818 126.548 104.255-1.574 4.099-3.434 8.341-5.819 12.838-47.169 88.903-193.768 43.907-190.337 68.356 4.431 31.598 58.833 35.443 44.282 74.841-1.375 3.734-3.148 7.663-5.868 12.088-35.479 57.716-150.203 30.953-151.787 57.872-1.577 26.724 65.044 2.085 62.597 46.534-.02.319.042.567.016.899-3.209 41.965-97.876 75.825-200.682 41.887 4.578-18.207 9.221-36.022 13.919-53.512 13.245-49.329 26.89-96.006 40.721-139.699 21.485-67.881 43.331-128.809 64.568-183.097 29.06-74.287 56.924-135.899 81.054-184.792 46.612-94.429 79.246-141.666 79.246-141.666-32.719 34.139-64.278 81.526-93.892 135.632-30.562 55.839-59.045 118.839-84.573 181.964-25.436 62.883-47.938 125.838-66.643 181.872z" transform="translate(192.5 17.5)"/></svg>