<?xml version="1.0" encoding="UTF-8" standalone="no"?><!DOCTYPE svg PUBLIC "-//W3C//DTD SVG 1.1//EN" "http://www.w3.org/Graphics/SVG/1.1/DTD/svg11.dtd"><svg width="100%" height="100%" viewBox="0 0 64 64" version="1.1" xmlns="http://www.w3.org/2000/svg" xmlns:xlink="http://www.w3.org/1999/xlink" xml:space="preserve" xmlns:serif="http://www.serif.com/" style="fill-rule:evenodd;clip-rule:evenodd;stroke-linejoin:round;stroke-miterlimit:2;"><g><path d="M31.941,0c8.952,0 16.573,3.125 22.858,9.372c3.008,3.009 5.295,6.447 6.855,10.314c1.563,3.867 2.346,7.971 2.346,12.314c0,4.381 -0.773,8.486 -2.314,12.313c-1.543,3.828 -3.819,7.211 -6.828,10.146c-3.123,3.084 -6.666,5.447 -10.629,7.086c-3.961,1.635 -8.057,2.455 -12.286,2.455c-4.229,0 -8.276,-0.809 -12.143,-2.43c-3.866,-1.617 -7.333,-3.961 -10.4,-7.027c-3.067,-3.066 -5.4,-6.523 -7,-10.371c-1.6,-3.848 -2.4,-7.904 -2.4,-12.172c0,-4.229 0.809,-8.295 2.428,-12.2c1.619,-3.904 3.972,-7.4 7.057,-10.486c6.095,-6.208 13.58,-9.314 22.456,-9.314Zm0.115,5.772c-7.313,0 -13.466,2.553 -18.457,7.656c-2.515,2.553 -4.448,5.42 -5.8,8.6c-1.354,3.182 -2.029,6.506 -2.029,9.973c0,3.429 0.675,6.733 2.029,9.913c1.353,3.184 3.285,6.021 5.8,8.516c2.514,2.496 5.351,4.4 8.515,5.715c3.161,1.314 6.476,1.974 9.942,1.974c3.428,0 6.75,-0.666 9.973,-2c3.221,-1.334 6.121,-3.259 8.715,-5.771c4.988,-4.875 7.482,-10.99 7.482,-18.345c0,-3.543 -0.646,-6.896 -1.941,-10.058c-1.293,-3.161 -3.182,-5.979 -5.654,-8.457c-5.147,-5.144 -11.336,-7.716 -18.575,-7.716Z" style="fill-rule:nonzero;"/><path d="M41.607,39.639l-0.828,-0.516c-1.941,2.143 -4.738,3.492 -7.857,3.492c-5.862,0 -10.615,-4.75 -10.615,-10.614c0,-5.863 4.753,-10.616 10.615,-10.616c3.119,0 5.916,1.351 7.857,3.492l0.828,-0.516l5.707,-3.539c-3.34,-4.29 -8.535,-7.062 -14.394,-7.062c-10.07,0 -18.237,8.167 -18.237,18.239c0,10.073 8.167,18.236 18.237,18.236c5.856,0 11.056,-2.77 14.394,-7.061l-5.707,-3.535Z" style="fill-rule:nonzero;"/></g></svg>