<svg width="24" height="24" viewBox="0 0 24 24" fill="none" xmlns="http://www.w3.org/2000/svg">
<path d="M5 11.5C5 11.813 5.461 12.358 6.53 12.893C7.914 13.585 9.877 14 12 14C14.123 14 16.086 13.585 17.47 12.893C18.539 12.358 19 11.813 19 11.5V9.329C17.35 10.349 14.827 11 12 11C9.173 11 6.65 10.348 5 9.329V11.5ZM19 14.329C17.35 15.349 14.827 16 12 16C9.173 16 6.65 15.348 5 14.329V16.5C5 16.813 5.461 17.358 6.53 17.893C7.914 18.585 9.877 19 12 19C14.123 19 16.086 18.585 17.47 17.893C18.539 17.358 19 16.813 19 16.5V14.329ZM3 16.5V6.5C3 4.015 7.03 2 12 2C16.97 2 21 4.015 21 6.5V16.5C21 18.985 16.97 21 12 21C7.03 21 3 18.985 3 16.5ZM12 9C14.123 9 16.086 8.585 17.47 7.893C18.539 7.358 19 6.813 19 6.5C19 6.187 18.539 5.642 17.47 5.107C16.086 4.415 14.123 4 12 4C9.877 4 7.914 4.415 6.53 5.107C5.461 5.642 5 6.187 5 6.5C5 6.813 5.461 7.358 6.53 7.893C7.914 8.585 9.877 9 12 9Z" fill="#666666"/>
</svg>
