<svg width="24" height="24" viewBox="0 0 24 24" fill="none" xmlns="http://www.w3.org/2000/svg">
<path d="M12 2L2 5.54186V6.78739L12 3.24647L22 6.78739V5.54186L12 2ZM3.20132 7.43932L4.37441 8.61242H19.6246L20.7987 7.43932H3.20132ZM18.4516 17.4008H19.6246V9.78457H18.4516V17.4008ZM16.1054 17.4008H17.2785V9.78457H16.1054V17.4008ZM13.7601 17.4008H14.9332V9.78457H13.7601V17.4008ZM11.413 17.4008H12.5861V9.78457H11.413V17.4008ZM9.06679 17.4008H10.2399V9.78457H9.06679V17.4008ZM6.72154 17.4008H7.89464V9.78457H6.72154V17.4008ZM4.37441 17.4008H5.54751V9.78457H4.37441V17.4008ZM3.17404 19.7479H20.8269V18.5748H3.17404V19.7479ZM2 22.095H22V20.921H2V22.095Z" fill="#1E64C8"/>
</svg>
