<svg width="24" height="24" viewBox="0 0 24 24" fill="none" xmlns="http://www.w3.org/2000/svg">
<path d="M7 10H20C20.2652 10 20.5196 10.1054 20.7071 10.2929C20.8946 10.4804 21 10.7348 21 11V21C21 21.2652 20.8946 21.5196 20.7071 21.7071C20.5196 21.8946 20.2652 22 20 22H4C3.73478 22 3.48043 21.8946 3.29289 21.7071C3.10536 21.5196 3 21.2652 3 21V11C3 10.7348 3.10536 10.4804 3.29289 10.2929C3.48043 10.1054 3.73478 10 4 10H5V9C4.99943 7.4227 5.53158 5.89144 6.51019 4.65443C7.4888 3.41742 8.8565 2.54718 10.3916 2.18476C11.9267 1.82234 13.5392 1.989 14.9677 2.65771C16.3963 3.32642 17.5571 4.45799 18.262 5.869L16.473 6.763C15.9695 5.75502 15.1403 4.94665 14.1198 4.46895C13.0994 3.99125 11.9475 3.87222 10.8509 4.13118C9.7543 4.39013 8.77733 5.01187 8.07836 5.89561C7.37939 6.77934 6.9994 7.87326 7 9V10ZM5 12V20H19V12H5ZM10 15H14V17H10V15Z" fill="#666666"/>
</svg>
