<?xml version="1.0" encoding="UTF-8" standalone="no"?><!DOCTYPE svg PUBLIC "-//W3C//DTD SVG 1.1//EN" "http://www.w3.org/Graphics/SVG/1.1/DTD/svg11.dtd"><svg width="100%" height="100%" viewBox="0 0 201 88" version="1.1" xmlns="http://www.w3.org/2000/svg" xmlns:xlink="http://www.w3.org/1999/xlink" xml:space="preserve" xmlns:serif="http://www.serif.com/" style="fill-rule:evenodd;clip-rule:evenodd;stroke-linejoin:round;stroke-miterlimit:2;"><g><rect x="119.173" y="15.796" width="2.283" height="14.822" style="fill:#132e53;fill-rule:nonzero;"/><rect x="114.608" y="15.796" width="2.283" height="14.822" style="fill:#132e53;fill-rule:nonzero;"/><rect x="110.041" y="15.796" width="2.283" height="14.822" style="fill:#132e53;fill-rule:nonzero;"/><rect x="105.474" y="15.796" width="2.283" height="14.822" style="fill:#132e53;fill-rule:nonzero;"/><rect x="123.74" y="15.796" width="2.283" height="14.822" style="fill:#132e53;fill-rule:nonzero;"/><rect x="128.307" y="15.796" width="2.283" height="14.822" style="fill:#132e53;fill-rule:nonzero;"/><rect x="132.872" y="15.796" width="2.283" height="14.822" style="fill:#132e53;fill-rule:nonzero;"/><rect x="103.136" y="32.901" width="34.357" height="2.285" style="fill:#132e53;fill-rule:nonzero;"/><path d="M135.157,13.513l-29.683,0l-2.282,-2.283l34.248,0l-2.282,2.283Z" style="fill:#132e53;fill-rule:nonzero;"/><rect x="100.854" y="37.468" width="38.923" height="2.285" style="fill:#132e53;fill-rule:nonzero;"/><path d="M139.777,7.536l-19.46,-6.892l-19.463,6.892l0,2.425l19.463,-6.892l19.46,6.892l0,-2.425Z" style="fill:#132e53;fill-rule:nonzero;"/><path d="M119.75,57.703l-4.919,0l0,7.327l-2.285,0l0,-16.144l2.285,0l0,6.88l4.919,0l0,-6.88l2.285,0l0,16.144l-2.285,0l0,-7.327Z" style="fill:#132e53;fill-rule:nonzero;"/><path d="M169.786,73.323c1.009,-0.003 1.959,0.327 2.396,0.67l0,-2.058c-0.437,-0.268 -1.509,-0.567 -2.595,-0.567c-3.032,0 -4.7,1.724 -4.7,4.224c0,2.085 0.882,3.086 2.303,4.313l1.3,1.123c1.072,0.898 1.74,1.59 1.74,2.932c0,1.57 -1.038,2.192 -2.595,2.192c-1.181,0 -2.161,-0.327 -2.724,-0.717l0,2.094c0.495,0.286 1.53,0.581 2.928,0.578c3.024,-0.007 4.692,-1.726 4.694,-4.223c0.003,-2.083 -0.882,-3.086 -2.303,-4.311l-1.3,-1.125c-1.075,-0.921 -1.742,-1.586 -1.74,-2.927c0.005,-1.577 1.035,-2.194 2.595,-2.197" style="fill:#132e53;fill-rule:nonzero;"/><path d="M155.756,73.604l0,5.69l1.218,0c1.787,0 2.981,-0.375 2.981,-2.857c0,-2.46 -1.194,-2.832 -2.981,-2.832l-1.218,-0Zm-2.285,-1.938l3.725,0c2.981,0 5.115,1.119 5.115,4.771c0,2.557 -1.239,3.798 -2.804,4.37l3.426,7.005l-2.608,0l-3.032,-6.583l-1.538,0l0,6.583l-2.285,0l0,-16.146Z" style="fill:#132e53;fill-rule:nonzero;"/><path d="M100.854,82.943l0,-11.275l2.285,0l0,11.375c0,2.385 0.821,3.079 2.484,3.079c1.665,0 2.484,-0.694 2.484,-3.079l0,-11.375l2.285,0l0,11.275c0,3.676 -1.538,5.167 -4.768,5.167c-3.278,0 -4.768,-1.441 -4.768,-5.167" style="fill:#132e53;fill-rule:nonzero;"/><path d="M113.345,71.668l2.634,0l5.091,12.865c-0.175,-1.316 -0.323,-2.856 -0.323,-4.297l0,-8.568l2.187,0l0,16.144l-2.634,0l-5.142,-12.915c0.199,1.316 0.373,2.88 0.373,4.347l0,8.568l-2.187,0l0,-16.144Z" style="fill:#132e53;fill-rule:nonzero;"/><rect x="126.168" y="71.668" width="2.285" height="16.144" style="fill:#132e53;fill-rule:nonzero;"/><path d="M130.576,71.668l2.386,0l2.036,8.395c0.299,1.268 0.67,3.403 0.895,5.092c0.222,-1.689 0.596,-3.824 0.943,-5.092l2.012,-8.395l2.309,0l-4.096,16.144l-2.386,0l-4.099,-16.144Z" style="fill:#132e53;fill-rule:nonzero;"/><path d="M143.28,71.668l7.551,0l0,1.938l-5.266,0l0,4.942l4.247,0l0,1.912l-4.247,0l0,5.416l5.266,0l0,1.937l-7.551,0l0,-16.144Z" style="fill:#132e53;fill-rule:nonzero;"/><rect x="175.245" y="71.668" width="2.285" height="16.144" style="fill:#132e53;fill-rule:nonzero;"/><path d="M100.358,56.959c0,-6.358 1.687,-8.372 5.886,-8.372c1.191,0 2.457,0.324 3.005,0.647l0,2.11c-0.596,-0.347 -1.74,-0.72 -2.833,-0.72c-2.682,0 -3.699,0.994 -3.699,6.335c0,5.289 0.72,6.381 3.055,6.381c0.72,0 1.316,-0.098 1.761,-0.223l0,-5.389l-2.383,0l0,-1.936l4.668,0l0,8.717c-0.471,0.298 -2.359,0.821 -4.022,0.821c-4.371,0 -5.438,-2.285 -5.438,-8.37" style="fill:#132e53;fill-rule:nonzero;"/><path d="M125.268,48.886l7.551,0l0,1.938l-5.264,0l0,4.942l4.247,0l0,1.912l-4.247,0l0,5.416l5.264,0l0,1.937l-7.551,0l0,-16.144Z" style="fill:#132e53;fill-rule:nonzero;"/><path d="M135.459,48.886l2.634,0l5.091,12.865c-0.175,-1.316 -0.323,-2.856 -0.323,-4.297l0,-8.568l2.184,0l0,16.144l-2.632,0l-5.142,-12.915c0.199,1.316 0.373,2.881 0.373,4.347l0,8.568l-2.187,0l0,-16.144Z" style="fill:#132e53;fill-rule:nonzero;"/><path d="M147.137,48.886l9.264,0l0,1.938l-3.5,0l0,14.206l-2.288,0l0,-14.206l-3.476,0l0,-1.938Z" style="fill:#132e53;fill-rule:nonzero;"/><path d="M194.287,81.107l-4.422,-9.439l2.51,0l1.912,4.347c0.447,1.043 0.871,2.16 1.144,3.154c0.297,-0.994 0.744,-2.112 1.191,-3.154l1.912,-4.347l2.436,0l-4.398,9.439l0,6.705l-2.285,0l0,-6.705Z" style="fill:#132e53;fill-rule:nonzero;"/><path d="M179.701,71.668l9.264,0l0,1.938l-3.503,0l0,14.206l-2.285,0l0,-14.206l-3.476,0l0,-1.938Z" style="fill:#132e53;fill-rule:nonzero;"/><path d="M22.443,83.037l-6.929,0l0,-6.396c0.011,-1.115 0.159,-1.981 0.442,-2.597c0.503,-1.103 1.432,-1.656 2.785,-1.656c1.597,0 2.679,0.57 3.243,1.708c0.304,0.627 0.458,1.505 0.458,2.632l0,6.309Zm-11.231,0l-5.73,0l0,-5.653c0,-1.245 0.138,-2.268 0.408,-3.071c0.387,-0.931 1.186,-1.396 2.396,-1.396c1.093,0 1.853,0.352 2.282,1.056c0.429,0.704 0.643,1.62 0.643,2.748l0,6.316Zm14.088,-13.134c-0.553,-0.736 -1.236,-1.35 -2.047,-1.84c-1.223,-0.771 -2.603,-1.157 -4.144,-1.157c-1.491,0 -2.762,0.337 -3.807,1.012c-1.046,0.675 -1.808,1.676 -2.293,3.002c-0.445,-0.873 -0.94,-1.534 -1.48,-1.982c-0.964,-0.802 -2.237,-1.204 -3.826,-1.204c-1.538,0 -2.859,0.398 -3.966,1.193c-1.798,1.321 -2.719,3.566 -2.767,6.735l0,12.558l25.984,0l0,-11.709c0,-1.32 -0.116,-2.544 -0.352,-3.672c-0.236,-1.128 -0.67,-2.106 -1.303,-2.936" style="fill:#132e53;fill-rule:nonzero;"/><path d="M0.97,41.617l0,7.016l10.707,10.04l-10.707,0l-0,5.342l25.984,0l0,-5.342l-8.69,0l-2.653,-2.615l11.343,-8.006l0,-6.981l-15.298,11.21l-10.686,-10.664Z" style="fill:#132e53;fill-rule:nonzero;"/><path d="M21.709,0.758l0,5.25l10.712,0l0,82.213l5.253,0l0,-82.213l10.712,-0l0,-5.25l-26.678,0Z" style="fill:#132e53;fill-rule:nonzero;"/><rect x="43.134" y="11.259" width="5.251" height="76.961" style="fill:#132e53;fill-rule:nonzero;"/><path d="M21.709,38.773l5.253,-3.845l0,-23.669l-5.253,0l0,27.514Z" style="fill:#132e53;fill-rule:nonzero;"/><rect x="73.913" y="0.757" width="1" height="87.464" style="fill:#132e53;fill-rule:nonzero;"/></g></svg>