<?xml version="1.0" encoding="UTF-8" standalone="no"?><!DOCTYPE svg PUBLIC "-//W3C//DTD SVG 1.1//EN" "http://www.w3.org/Graphics/SVG/1.1/DTD/svg11.dtd"><svg width="100%" height="100%" viewBox="0 0 256 256" version="1.1" xmlns="http://www.w3.org/2000/svg" xmlns:xlink="http://www.w3.org/1999/xlink" xml:space="preserve" xmlns:serif="http://www.serif.com/" style="fill-rule:evenodd;clip-rule:evenodd;stroke-linejoin:round;stroke-miterlimit:2;"><g id="Layer-1" serif:id="Layer 1"><path d="M255.726,128.503l0,0.002c-0.001,69.935 -57.713,127.496 -127.864,127.496c-70.151,0 -127.864,-57.561 -127.864,-127.497c-0,-69.936 57.713,-127.497 127.864,-127.497c70.151,-0 127.863,57.561 127.864,127.496Zm-16.505,0.002l0,-0.002c-0.001,-60.895 -50.277,-110.992 -111.359,-110.992c-61.083,0 -111.359,50.097 -111.359,110.993c0,60.896 50.276,110.993 111.359,110.993c61.083,0 111.359,-50.096 111.359,-110.992Z"/><g><g><path d="M38.48,179.228l0,-99.726l23.913,0l14.359,68.026l14.197,-68.026l23.967,0l0,99.726l-14.845,0l0,-78.502l-15.708,78.502l-15.384,0l-15.654,-78.502l0,78.502l-14.845,0Z"/><rect x="130.301" y="79.503" width="15.978" height="99.726"/><path d="M179.315,179.228l0,-82.855l-23.482,0l0,-16.87l62.888,0l0,16.87l-23.428,0l0,82.855l-15.978,0Z"/></g></g></g></svg>