<svg width="24" height="24" viewBox="0 0 24 24" fill="none" xmlns="http://www.w3.org/2000/svg">
<path fill-rule="evenodd" clip-rule="evenodd" d="M12.1063 16.1063L10.6921 14.6921L6.414 18.9702H5V17.5562L9.27811 13.2781L7.86389 11.8639L3 16.7278V20.9702H7.24243L12.1063 16.1063ZM12.1065 7.62125L16.4349 3.29289C16.8254 2.90237 17.4586 2.90237 17.8491 3.29289L20.6773 6.12111C21.0678 6.51163 21.0678 7.1448 20.6773 7.53532L16.349 11.8637L14.9347 10.4495L18.556 6.82821L17.142 5.41421L13.5207 9.03547L12.1065 7.62125Z" fill="#4D4D4D"/>
<path fill-rule="evenodd" clip-rule="evenodd" d="M5.29289 5.29289C5.68342 4.90237 6.31658 4.90237 6.70711 5.29289L18.7279 17.3137C19.1184 17.7042 19.1184 18.3374 18.7279 18.7279C18.3374 19.1184 17.7042 19.1184 17.3137 18.7279L5.29289 6.70711C4.90237 6.31658 4.90237 5.68342 5.29289 5.29289Z" fill="#4D4D4D"/>
</svg>
