<?xml version="1.0" encoding="UTF-8" standalone="no"?><!DOCTYPE svg PUBLIC "-//W3C//DTD SVG 1.1//EN" "http://www.w3.org/Graphics/SVG/1.1/DTD/svg11.dtd"><svg width="100%" height="100%" viewBox="0 0 100 100" version="1.1" xmlns="http://www.w3.org/2000/svg" xmlns:xlink="http://www.w3.org/1999/xlink" xml:space="preserve" xmlns:serif="http://www.serif.com/" style="fill-rule:evenodd;clip-rule:evenodd;stroke-linejoin:round;stroke-miterlimit:2;"><path d="M50,91.667c-23.014,0 -41.667,-18.653 -41.667,-41.667c-0,-23.014 18.652,-41.667 41.667,-41.667c23.014,-0 41.667,18.652 41.667,41.667c0,23.014 -18.653,41.667 -41.667,41.667Zm16.059,-40.55l0,-15.057c0,-8.79 -7.233,-16.023 -16.022,-16.023c-8.79,0 -16.022,7.233 -16.022,16.023l0,2.188l6.417,0l0,-2.188c0,-5.27 4.336,-9.606 9.606,-9.606c5.269,0 9.606,4.336 9.606,9.606l0,8.762c-2.823,-1.68 -6.121,-2.646 -9.642,-2.646c-10.427,0 -18.893,8.466 -18.893,18.893c0,10.427 8.466,18.893 18.893,18.893c10.427,0 18.893,-8.466 18.893,-18.893c0,-3.651 -1.038,-7.062 -2.835,-9.953Zm-16.059,-2.524c6.886,0 12.476,5.591 12.476,12.476c0,6.886 -5.591,12.476 -12.476,12.476c-6.886,0 -12.476,-5.591 -12.476,-12.476c0,-6.886 5.591,-12.476 12.476,-12.476Zm0.062,7.24c-2.922,0 -5.294,2.372 -5.294,5.294c0,2.922 2.372,5.294 5.294,5.294c2.922,0 5.294,-2.372 5.294,-5.294c0,-2.922 -2.372,-5.294 -5.294,-5.294Z" style="fill:#f68212;"/></svg>