<?xml version="1.0" encoding="UTF-8" standalone="no"?><!DOCTYPE svg PUBLIC "-//W3C//DTD SVG 1.1//EN" "http://www.w3.org/Graphics/SVG/1.1/DTD/svg11.dtd"><svg width="100%" height="100%" viewBox="0 0 100 100" version="1.1" xmlns="http://www.w3.org/2000/svg" xmlns:xlink="http://www.w3.org/1999/xlink" xml:space="preserve" xmlns:serif="http://www.serif.com/" style="fill-rule:evenodd;clip-rule:evenodd;stroke-linejoin:round;stroke-miterlimit:2;"><path d="M74.991,51.738c2.796,4.499 4.411,9.807 4.411,15.489c0,16.228 -13.175,29.403 -29.403,29.403c-16.228,0 -29.403,-13.175 -29.403,-29.403c0,-16.228 13.175,-29.403 29.403,-29.403c5.48,0 10.611,1.502 15.005,4.117l-0,-13.635c0,-8.201 -6.748,-14.949 -14.949,-14.949c-8.201,0 -14.949,6.748 -14.949,14.949l0,3.405l-9.986,-0l0,-3.405c-0,-13.679 11.256,-24.935 24.935,-24.935c13.679,-0 24.935,11.256 24.935,24.935l0,23.432Zm-24.991,-3.928c-10.716,0 -19.417,8.7 -19.417,19.417c0,10.716 8.7,19.417 19.417,19.417c10.716,0 19.417,-8.7 19.417,-19.417c0,-10.716 -8.7,-19.417 -19.417,-19.417Zm0.096,11.267c4.547,0 8.238,3.691 8.238,8.238c0,4.547 -3.691,8.238 -8.238,8.238c-4.547,0 -8.238,-3.691 -8.238,-8.238c0,-4.547 3.691,-8.238 8.238,-8.238Z" style="fill:#f68212;"/></svg>