<svg width="24" height="24" viewBox="0 0 24 24" fill="none" xmlns="http://www.w3.org/2000/svg">
<path d="M12 22C17.5234 22 22 17.5234 22 12C22 6.47656 17.5234 2 12 2C6.47656 2 2 6.47656 2 12C2 17.5234 6.47656 22 12 22ZM8.14062 7.22655C7.70312 7.22655 7.35156 6.86717 7.35156 6.43748C7.35156 5.99998 7.70312 5.64842 8.14062 5.64842C8.57812 5.64842 8.92969 6.0078 8.92969 6.43748C8.92969 6.86717 8.57812 7.22655 8.14062 7.22655ZM13.625 15.4688C16.3516 15.4688 16.9766 13.3985 16.9766 12.3672C16.9766 10.6875 15.9062 9.26561 13.5625 9.26561H11.7109V15.4688H13.625ZM13.7578 8.17967C16.8515 8.17967 18.2109 10.3906 18.2109 12.3672C18.2109 14.5156 16.5312 16.5547 13.7734 16.5547H10.5078V8.17967H13.7578ZM7.53906 8.17967H8.74219V16.5469H7.53906V8.17967Z" fill="#A6CE39"/>
</svg>
