<svg width="24" height="24" viewBox="0 0 24 24" fill="none" xmlns="http://www.w3.org/2000/svg">
<path d="M11.0866 7.21275C11.4014 6.81073 11.9516 6.94438 12.0815 7.0212C12.2114 7.09801 12.3 7.17362 12.4016 7.29556C12.5134 7.4175 12.5693 7.5903 12.5693 7.81386C12.5693 8.07805 12.493 8.28637 12.3406 8.43879C12.1882 8.58105 11.985 8.65221 11.7309 8.65221C11.4871 8.65221 11.2838 8.58106 11.1212 8.43879C10.9688 8.28637 10.8926 8.06278 10.8926 7.7681C10.8926 7.54454 10.9926 7.33274 11.0866 7.21275Z" fill="#666666"/>
<path fill-rule="evenodd" clip-rule="evenodd" d="M6.77205 5.06821C8.00375 4.91475 8.71203 5.06819 9.42707 5.06821C10.1421 5.06823 12.1763 5.06821 13.0786 5.06821C13.1768 5.06821 13.2496 5.06979 13.2997 5.07253C14.5034 5.08402 15.4382 5.39633 16.1039 6.00984C16.7956 6.62176 17.1415 7.53966 17.1415 8.7635C17.1415 9.70799 16.8754 10.4995 16.3433 11.138C15.8245 11.7633 15.0597 12.169 14.0487 12.3552L16.3832 16.6853C16.6493 17.1642 16.9486 17.5167 17.2812 17.7429C17.6138 17.969 18.0262 18.0821 18.5184 18.0821H18.698V19H17.4209C17.0351 19 16.7092 18.9601 16.4431 18.8803C16.1904 18.8004 15.9643 18.6873 15.7647 18.541C15.5652 18.3947 15.3855 18.2084 15.2259 17.9823C15.0796 17.7562 14.9266 17.4968 14.767 17.2041L12.2926 12.5947H9.93811V18.0821H11.4346V19H6.72547V18.0821H8.22206C8.22206 14.5981 8.20999 11.4297 8.20999 8.1936C8.20996 7.25564 6.22486 6.77308 6.21779 6.77136L5.22315 6.51994C5.12299 6.5423 4.99685 6.57787 4.83203 6.63281C4.83206 6.10178 5.81099 5.18796 6.77205 5.06821ZM9.93811 11.617H13.0709C13.7892 11.617 14.3413 11.3975 14.7271 10.9585C15.1128 10.5062 15.3057 9.95414 15.3057 9.30232V8.38439C15.3057 7.73256 15.1128 7.1805 14.7271 6.72821C14.3413 6.27592 13.7892 6.04976 13.0709 6.04976H9.93811V11.617Z" fill="#666666"/>
</svg>
