<svg width="16" height="16" viewBox="0 0 16 16" fill="none" xmlns="http://www.w3.org/2000/svg">
<path d="M12.0203 11.0777L14.8757 13.9323L13.9323 14.8757L11.0777 12.0203C10.0155 12.8718 8.69434 13.3349 7.33301 13.333C4.02101 13.333 1.33301 10.645 1.33301 7.33301C1.33301 4.02101 4.02101 1.33301 7.33301 1.33301C10.645 1.33301 13.333 4.02101 13.333 7.33301C13.3349 8.69434 12.8718 10.0155 12.0203 11.0777ZM10.683 10.583C11.5291 9.71293 12.0016 8.54663 11.9997 7.33301C11.9997 4.75434 9.91101 2.66634 7.33301 2.66634C4.75434 2.66634 2.66634 4.75434 2.66634 7.33301C2.66634 9.91101 4.75434 11.9997 7.33301 11.9997C8.54663 12.0016 9.71293 11.5291 10.583 10.683L10.683 10.583ZM6.66634 6.66634V4.66634H7.99967V6.66634H9.99967V7.99967H7.99967V9.99967H6.66634V7.99967H4.66634V6.66634H6.66634Z" fill="#666666"/>
</svg>
