<?xml version="1.0" encoding="UTF-8" standalone="no"?>
<!DOCTYPE svg PUBLIC "-//W3C//DTD SVG 1.1//EN" "http://www.w3.org/Graphics/SVG/1.1/DTD/svg11.dtd">
<svg width="100%" height="100%" viewBox="0 0 528 303" version="1.1" xmlns="http://www.w3.org/2000/svg" xmlns:xlink="http://www.w3.org/1999/xlink" xml:space="preserve" xmlns:serif="http://www.serif.com/" style="fill-rule:evenodd;clip-rule:evenodd;stroke-linejoin:round;stroke-miterlimit:2;">
    <g id="Artboard1" transform="matrix(0.913495,0,0,0.797368,-71.252595,-39.071053)">
        <rect x="78" y="49" width="578" height="380" style="fill:none;"/>
        <clipPath id="_clip1">
            <rect x="78" y="49" width="578" height="380"/>
        </clipPath>
        <g clip-path="url(#_clip1)">
            <g transform="matrix(1.282848,0,0,1.469678,-96.056818,-161.693069)">
                <path d="M140.5,145.223C146.66,145.221 213.735,145.2 217.502,145.227C220.359,145.247 220.832,145.651 220.835,148.499C220.975,295.702 220.767,295.698 220.818,308.498C220.851,316.747 227.925,315.776 230.5,315.762C244.337,315.686 276.88,315.779 278.511,315.739C278.746,315.733 280.776,315.683 281.112,314.393C281.243,313.889 281.229,313.89 281.229,160.5C281.229,146.451 281.003,145.891 282.462,145.401C283.064,145.198 283.079,145.222 348.5,145.222C365.426,145.222 366.037,144.981 366.501,146.5C366.877,147.728 366.592,203.603 366.677,215.496C366.68,215.885 366.345,218.086 368.518,218.344C368.718,218.368 432.797,218.341 460.501,218.371C469.797,218.381 469.8,218.098 470.593,218.253C471.674,218.463 471.543,219.382 471.525,219.505C471.453,220.005 469.29,221.791 462.574,228.576C461.5,229.66 450.692,240.578 449.13,242.114C447.879,243.344 445.972,245.218 433.628,257.627C418.931,272.4 418.86,272.298 417.588,273.586C389.693,301.85 389.475,301.622 381.646,309.643C370.391,321.175 367.085,323.614 366.758,325.554C366.565,326.698 366.752,398.108 366.645,399.517C366.632,399.687 366.537,400.939 365.427,401.265C364.89,401.422 364.88,401.409 318.5,401.409C214.513,401.409 214.511,401.482 205.473,400.83C200.778,400.491 188.3,397.963 177.631,392.238C169.718,387.992 165.027,383.928 162.801,382.115C158.286,378.437 148.471,367.821 143.265,356.609C135.66,340.233 135.448,328.879 135.45,319.5C135.473,147.287 135.424,147.268 135.612,146.536C136.06,144.797 139.434,145.232 140.5,145.223ZM156.814,355.306C169.071,375.459 183.825,381.28 190.588,384.3C193.967,385.809 203.002,388.134 209.497,388.552C215.738,388.954 292.362,388.67 343.501,388.752C352.231,388.767 353.411,388.935 353.826,387.643C354.168,386.578 353.775,334.05 354.036,327.5C354.269,321.647 352.707,320.717 356.253,317.243C359.185,314.369 373.727,299.767 375.243,298.245C380.478,292.988 437.833,235.396 440.77,232.639C441.089,232.339 441.301,232.296 441.309,231.518C441.323,230.148 440.515,230.854 435.501,230.847L357.501,230.851C354.982,230.854 354.173,231.056 354.034,228.528C353.944,226.876 353.957,226.881 353.957,167.5C353.957,159.665 354.794,158.146 351.536,158.007C348.524,157.879 299.977,158.018 297.499,157.934C293.143,157.786 293.706,159.421 293.693,162.5C293.642,173.913 293.734,325.989 293.643,326.524C293.284,328.645 290.807,328.302 290.498,328.304C285.221,328.325 228.123,328.554 224.536,328.194C223.542,328.094 218.185,327.557 213.372,322.622C207.154,316.247 208.239,306.971 208.241,304.5C208.31,172.01 208.371,172.031 208.18,160.514C208.149,158.622 207.509,158.052 205.529,158.013C202.724,157.958 202.725,158.019 153.5,158.014C150.298,158.013 148.066,157.242 147.883,160.519C147.69,163.953 147.908,163.934 147.908,203.5C147.908,324.571 147.843,324.567 148.381,329.512C149.767,342.259 154.584,350.956 156.814,355.306ZM579.492,145.205C582.983,145.241 582.984,145.188 583.544,145.291C584.642,145.493 584.709,145.549 585.132,146.597C585.223,146.823 585.213,148.342 585.212,148.494C585.185,152.72 585.214,213.194 585.197,217.497C585.162,226.497 585.686,226.901 583.291,229.299L511.302,301.304C505.339,307.28 505.309,307.241 504.81,307.779C498.646,314.434 498.011,313.933 497.893,314.642C497.683,315.901 500.243,315.838 500.47,315.832C506.87,315.674 508.205,315.641 580.499,315.741C583.874,315.746 585.236,315.137 585.231,318.497L585.202,391.5C585.201,399.732 585.606,401.042 583.475,401.351C583.058,401.411 574.736,401.413 574.513,401.386C574.358,401.367 573.218,401.231 572.872,400.347C572.681,399.857 572.687,399.836 572.689,345.5C572.69,329.562 572.975,328.979 571.503,328.493C570.547,328.177 570.509,328.339 485.5,328.306C468.573,328.299 468.4,328.647 467.916,328.064C467.301,327.322 468.198,326.474 468.298,326.379C470.111,324.666 470.103,324.661 490.403,304.398C493.246,301.56 516.386,278.462 525.863,268.848C534.46,260.125 571.48,223.356 572.154,222.294C572.782,221.305 572.689,221.206 572.689,198.5C572.689,146.822 572.648,146.745 573.031,146.211C573.925,144.969 574.868,145.229 579.492,145.205Z" style="fill:white;"/>
            </g>
        </g>
    </g>
</svg>
