<?xml version="1.0" encoding="UTF-8" standalone="no"?>
<!DOCTYPE svg PUBLIC "-//W3C//DTD SVG 1.1//EN" "http://www.w3.org/Graphics/SVG/1.1/DTD/svg11.dtd">
<svg width="100%" height="100%" viewBox="0 0 84 84" version="1.1" xmlns="http://www.w3.org/2000/svg" xmlns:xlink="http://www.w3.org/1999/xlink" xml:space="preserve" xmlns:serif="http://www.serif.com/" style="fill-rule:evenodd;clip-rule:evenodd;stroke-linejoin:round;stroke-miterlimit:2;">
    <g transform="matrix(1.286408,0,0,1.317073,-243.46167,-184.914559)">
        <g transform="matrix(0.777359,0,0,0.759259,103.191713,134.071204)">
            <path d="M152.383,8.333L110.716,23.091L110.716,28.281L152.383,13.527L194.05,28.281L194.05,23.091L152.383,8.333ZM115.722,30.997L120.61,35.885L184.152,35.885L189.044,30.997L115.722,30.997ZM179.265,72.503L184.152,72.503L184.152,40.769L179.265,40.769L179.265,72.503ZM169.489,72.503L174.377,72.503L174.377,40.769L169.489,40.769L169.489,72.503ZM159.717,72.503L164.605,72.503L164.605,40.769L159.717,40.769L159.717,72.503ZM149.937,72.503L154.825,72.503L154.825,40.769L149.937,40.769L149.937,72.503ZM140.161,72.503L145.049,72.503L145.049,40.769L140.161,40.769L140.161,72.503ZM130.389,72.503L135.277,72.503L135.277,40.769L130.389,40.769L130.389,72.503ZM120.609,72.503L125.497,72.503L125.497,40.769L120.609,40.769L120.609,72.503ZM115.607,82.283L189.161,82.283L189.161,77.395L115.607,77.395L115.607,82.283ZM110.715,92.063L194.048,92.063L194.048,87.171L110.715,87.171L110.715,92.063Z" style="fill:white;fill-rule:nonzero;"/>
        </g>
    </g>
</svg>
