<?xml version="1.0" encoding="UTF-8" standalone="no"?>
<!DOCTYPE svg PUBLIC "-//W3C//DTD SVG 1.1//EN" "http://www.w3.org/Graphics/SVG/1.1/DTD/svg11.dtd">
<svg width="100%" height="100%" viewBox="0 0 22 22" version="1.1" xmlns="http://www.w3.org/2000/svg" xmlns:xlink="http://www.w3.org/1999/xlink" xml:space="preserve" xmlns:serif="http://www.serif.com/" style="fill-rule:evenodd;clip-rule:evenodd;stroke-linejoin:round;stroke-miterlimit:2;">
    <g transform="matrix(1,0,0,1,-0.261,-0.481)">
        <path d="M10.891,8.539C9.469,8.539 8.317,9.691 8.317,11.109C8.317,12.531 9.469,13.683 10.891,13.683C12.309,13.683 13.461,12.531 13.461,11.109C13.461,9.691 12.309,8.539 10.891,8.539ZM12.215,11.109C12.215,11.843 11.621,12.433 10.891,12.433C10.157,12.433 9.567,11.843 9.567,11.109C9.567,10.379 10.157,9.785 10.891,9.785C11.621,9.785 12.215,10.379 12.215,11.109M16.27,1.641C14.852,1.641 13.7,2.793 13.7,4.211C13.7,5.633 14.852,6.785 16.27,6.785C17.692,6.785 18.844,5.633 18.844,4.211C18.844,2.793 17.692,1.641 16.27,1.641ZM17.598,4.211C17.598,4.945 17.004,5.539 16.27,5.539C15.54,5.539 14.946,4.945 14.946,4.211C14.946,3.481 15.54,2.887 16.27,2.887C17.004,2.887 17.598,3.481 17.598,4.211M10.891,1.727C11.18,1.727 11.465,1.747 11.746,1.77L11.859,0.532C11.539,0.501 11.218,0.481 10.89,0.481C5.019,0.481 0.261,5.239 0.261,11.11C0.261,16.981 5.019,21.743 10.89,21.743C16.761,21.743 21.519,16.981 21.519,11.11C21.519,9.88 21.3,8.704 20.914,7.606L19.738,8.016C20.078,8.989 20.273,10.024 20.273,11.11C20.273,16.294 16.07,20.493 10.89,20.493C5.706,20.493 1.507,16.294 1.507,11.11C1.507,5.93 5.706,1.727 10.89,1.727M10.891,4.223C11.102,4.223 11.309,4.235 11.52,4.254L11.633,3.012C11.387,2.992 11.141,2.977 10.891,2.977C6.399,2.977 2.754,6.618 2.754,11.11C2.754,15.602 6.399,19.247 10.891,19.247C15.383,19.247 19.028,15.602 19.028,11.11C19.028,10.169 18.856,9.27 18.563,8.426L17.387,8.84C17.637,9.551 17.778,10.313 17.778,11.11C17.778,14.915 14.696,18.001 10.891,18.001C7.086,18.001 4,14.915 4,11.11C4,7.305 7.086,4.223 10.891,4.223" style="fill:white;fill-rule:nonzero;"/>
    </g>
</svg>
