<?xml version="1.0" encoding="UTF-8" standalone="no"?>
<!DOCTYPE svg PUBLIC "-//W3C//DTD SVG 1.1//EN" "http://www.w3.org/Graphics/SVG/1.1/DTD/svg11.dtd">
<svg width="100%" height="100%" viewBox="0 0 22 21" version="1.1" xmlns="http://www.w3.org/2000/svg" xmlns:xlink="http://www.w3.org/1999/xlink" xml:space="preserve" xmlns:serif="http://www.serif.com/" style="fill-rule:evenodd;clip-rule:evenodd;stroke-linejoin:round;stroke-miterlimit:2;">
    <g transform="matrix(1,0,0,1,-0.262,-1.684)">
        <path d="M9.488,13.52C7.101,15.528 5.5,18.442 5.25,21.739L6.496,21.739C6.746,18.821 8.176,16.239 10.301,14.466L9.488,13.52ZM11.398,9.43C6.562,11.539 3.105,16.215 2.753,21.739L3.999,21.739C4.351,16.716 7.511,12.473 11.917,10.567L11.398,9.43ZM16.832,1.684L12.707,6.34C5.805,8.215 0.66,14.34 0.262,21.738L1.508,21.738C1.914,14.781 6.84,9.039 13.403,7.433L16.196,4.281L19.923,19.273L16.81,19.273L13.865,15.734L12.904,16.531L16.228,20.519L21.521,20.519L16.832,1.684Z" style="fill:white;fill-rule:nonzero;"/>
    </g>
</svg>
