<?xml version="1.0" encoding="UTF-8" standalone="no"?>
<!DOCTYPE svg PUBLIC "-//W3C//DTD SVG 1.1//EN" "http://www.w3.org/Graphics/SVG/1.1/DTD/svg11.dtd">
<svg width="100%" height="100%" viewBox="0 0 12 22" version="1.1" xmlns="http://www.w3.org/2000/svg" xmlns:xlink="http://www.w3.org/1999/xlink" xml:space="preserve" xmlns:serif="http://www.serif.com/" style="fill-rule:evenodd;clip-rule:evenodd;stroke-linejoin:round;stroke-miterlimit:2;">
    <g transform="matrix(1,0,0,1,-0.262,-0.481)">
        <path d="M6.496,6.094L6.496,10.485L5.25,10.485L5.25,6.094C5.25,5.746 5.527,5.469 5.871,5.469C6.215,5.469 6.496,5.746 6.496,6.094M8.988,6.094L8.988,10.485L7.742,10.485L7.742,6.094C7.742,5.059 6.906,4.223 5.871,4.223C4.84,4.223 4,5.059 4,6.094L4,10.485L2.754,10.485L2.754,6.094C2.754,4.371 4.149,2.973 5.871,2.973C7.594,2.973 8.988,4.371 8.988,6.094M11.484,6.094L11.484,10.485L10.238,10.485L10.238,6.094C10.238,3.68 8.281,1.727 5.871,1.727C3.461,1.727 1.508,3.68 1.508,6.094L1.508,10.485L0.262,10.485L0.262,6.094C0.262,2.992 2.774,0.481 5.871,0.481C8.973,0.481 11.484,2.993 11.484,6.094M11.484,16.129L11.484,11.734L10.238,11.734L10.238,16.129C10.238,18.539 8.281,20.492 5.871,20.492C3.461,20.492 1.508,18.539 1.508,16.129L1.508,11.734L0.262,11.734L0.262,16.129C0.262,19.227 2.774,21.738 5.871,21.738C8.973,21.738 11.484,19.226 11.484,16.129" style="fill:white;fill-rule:nonzero;"/>
    </g>
</svg>
