<?xml version="1.0" encoding="UTF-8" standalone="no"?>
<!DOCTYPE svg PUBLIC "-//W3C//DTD SVG 1.1//EN" "http://www.w3.org/Graphics/SVG/1.1/DTD/svg11.dtd">
<svg width="100%" height="100%" viewBox="0 0 22 22" version="1.1" xmlns="http://www.w3.org/2000/svg" xmlns:xlink="http://www.w3.org/1999/xlink" xml:space="preserve" xmlns:serif="http://www.serif.com/" style="fill-rule:evenodd;clip-rule:evenodd;stroke-linejoin:round;stroke-miterlimit:2;">
    <g transform="matrix(1,0,0,1,-71,0)">
        <g id="Artboard1" transform="matrix(1,0,0,1,-0.257,0)">
            <rect x="71.257" y="0" width="21.257" height="21.259" style="fill:none;"/>
            <g transform="matrix(1,0,0,1,70.995,-0.479)">
                <path d="M17.695,11.746L17.937,12.996L21.519,12.996L21.519,11.746L17.695,11.746ZM3.34,15.488L0.262,15.488L0.262,16.738L3.582,16.738L3.34,15.488ZM9.941,0.48L6.457,18.46L5.395,12.995L0.262,12.995L0.262,14.241L4.367,14.241L5.82,21.737L7.09,21.737L11.211,0.479L9.941,0.48ZM16.91,14.242L14.242,0.48L12.48,0.48L8.359,21.738L9.629,21.738L13.359,2.488L15.882,15.488L21.519,15.488L21.519,14.242L16.91,14.242Z" style="fill:white;fill-rule:nonzero;"/>
            </g>
        </g>
    </g>
</svg>
