<?xml version="1.0" encoding="UTF-8" standalone="no"?>
<!DOCTYPE svg PUBLIC "-//W3C//DTD SVG 1.1//EN" "http://www.w3.org/Graphics/SVG/1.1/DTD/svg11.dtd">
<svg width="100%" height="100%" viewBox="0 0 18 22" version="1.1" xmlns="http://www.w3.org/2000/svg" xmlns:xlink="http://www.w3.org/1999/xlink" xml:space="preserve" xmlns:serif="http://www.serif.com/" style="fill-rule:evenodd;clip-rule:evenodd;stroke-linejoin:round;stroke-miterlimit:2;">
    <g transform="matrix(1,0,0,1,-0.258,-0.481)">
        <path d="M7.719,12.562L3.055,21.738L4.453,21.738L9.172,12.453L6.828,9.121C6.453,8.613 6.226,7.988 6.223,7.309C6.227,5.606 7.606,4.227 9.309,4.223C9.336,4.223 9.364,4.231 9.391,4.231L9.391,2.985C9.364,2.981 9.336,2.973 9.309,2.973C6.914,2.977 4.977,4.914 4.977,7.309C4.977,8.266 5.297,9.141 5.825,9.856L7.719,12.562ZM16.117,7.547C16.117,7.465 16.133,7.387 16.133,7.305C16.133,3.535 13.078,0.481 9.309,0.481C5.539,0.481 2.481,3.536 2.481,7.305C2.481,8.817 2.977,10.203 3.805,11.332L4.817,12.781L0.258,21.738L1.66,21.738L6.269,12.668L4.812,10.594C4.136,9.672 3.73,8.539 3.73,7.305C3.734,4.227 6.226,1.735 9.308,1.727C12.39,1.735 14.882,4.227 14.886,7.305C14.886,7.457 14.859,7.606 14.847,7.754L14.843,7.754L14.847,7.758L16.148,10.692L14.605,10.692L13.98,14.778L11.851,14.778L11.218,16.024L15.05,16.024L15.675,11.938L17.46,11.938L17.831,11.418L16.117,7.547Z" style="fill:white;fill-rule:nonzero;"/>
    </g>
</svg>
