<?xml version="1.0" encoding="UTF-8" standalone="no"?>
<!DOCTYPE svg PUBLIC "-//W3C//DTD SVG 1.1//EN" "http://www.w3.org/Graphics/SVG/1.1/DTD/svg11.dtd">
<svg width="100%" height="100%" viewBox="0 0 22 16" version="1.1" xmlns="http://www.w3.org/2000/svg" xmlns:xlink="http://www.w3.org/1999/xlink" xml:space="preserve" xmlns:serif="http://www.serif.com/" style="fill-rule:evenodd;clip-rule:evenodd;stroke-linejoin:round;stroke-miterlimit:2;">
    <g id="Artboard2" transform="matrix(1,0,0,1,-71.24786,0)">
        <rect x="71.248" y="0" width="21.248" height="15.372" style="fill:none;"/>
        <clipPath id="_clip1">
            <rect x="71.248" y="0" width="21.248" height="15.372"/>
        </clipPath>
        <g clip-path="url(#_clip1)">
            <g transform="matrix(1,0,0,1,69.981049,-6.348)">
                <g id="Layer">
                    <path d="M16.43,14.449L15.328,13.812C14.648,14.679 13.656,15.277 12.512,15.441L12.512,16.714C14.117,16.538 15.52,15.683 16.43,14.448M19.684,16.332C18.11,18.676 15.504,20.266 12.512,20.461L12.512,21.707C15.965,21.508 18.973,19.672 20.766,16.953L19.684,16.332ZM18.602,15.703L17.516,15.078C16.383,16.683 14.578,17.781 12.512,17.969L12.512,19.215C15.039,19.024 17.246,17.68 18.602,15.703M17.051,8.848L15.953,9.485C16.359,10.508 16.383,11.665 15.953,12.739L17.055,13.376C17.707,11.896 17.668,10.255 17.051,8.849M20.309,6.969C21.555,9.508 21.625,12.559 20.301,15.246L21.379,15.871C22.934,12.781 22.848,9.258 21.391,6.348L20.309,6.969ZM19.227,7.594L18.141,8.223C18.961,10.008 19.016,12.118 18.141,14L19.219,14.625C20.317,12.336 20.262,9.758 19.227,7.594M6.727,13.371L7.829,12.734C7.423,11.711 7.399,10.554 7.829,9.48L6.724,8.847C6.076,10.324 6.115,11.964 6.728,13.37M3.469,15.25C2.227,12.715 2.157,9.66 3.481,6.973L2.399,6.352C0.848,9.438 0.934,12.961 2.391,15.872L3.469,15.25ZM4.555,14.625L5.641,14C4.817,12.211 4.766,10.102 5.641,8.219L4.559,7.594C3.461,9.883 3.52,12.461 4.555,14.625M11.27,16.711L11.266,15.441C10.176,15.281 9.164,14.722 8.45,13.812L7.348,14.453C8.305,15.754 9.743,16.539 11.27,16.711M11.266,20.473C8.446,20.282 5.766,18.817 4.102,16.325L3.024,16.95C4.922,19.837 8.016,21.524 11.266,21.72L11.266,20.473ZM11.266,19.219L11.27,17.965C9.309,17.785 7.457,16.774 6.262,15.078L5.18,15.699C6.614,17.793 8.879,19.035 11.266,19.219" style="fill:white;fill-rule:nonzero;"/>
                </g>
            </g>
        </g>
    </g>
</svg>
