<?xml version="1.0" encoding="UTF-8" standalone="no"?>
<!DOCTYPE svg PUBLIC "-//W3C//DTD SVG 1.1//EN" "http://www.w3.org/Graphics/SVG/1.1/DTD/svg11.dtd">
<svg width="100%" height="100%" viewBox="0 0 22 22" version="1.1" xmlns="http://www.w3.org/2000/svg" xmlns:xlink="http://www.w3.org/1999/xlink" xml:space="preserve" xmlns:serif="http://www.serif.com/" style="fill-rule:evenodd;clip-rule:evenodd;stroke-linejoin:round;stroke-miterlimit:2;">
    <g transform="matrix(1,0,0,1,-0.262,-0.48)">
        <path d="M8.918,16.754L5.184,8.563L3.993,8.563L0.263,16.754L1.63,16.754L4.591,10.262L7.548,16.754L8.918,16.754ZM21.52,16.754L17.786,8.563L16.598,8.563L12.864,16.754L14.231,16.754L17.192,10.262L20.153,16.754L21.52,16.754ZM8.918,20.492L0.262,20.492L1.508,21.738L7.668,21.738L8.918,20.492ZM21.52,20.492L12.864,20.492L14.11,21.738L20.274,21.738L21.52,20.492ZM0.262,19.246L8.918,19.246L8.918,18L0.262,18L0.262,19.246ZM4.562,7.316L17.218,7.316L16.648,6.07L5.128,6.07L4.562,7.316ZM12.863,19.246L21.519,19.246L21.519,18L12.863,18L12.863,19.246ZM12.863,0.48L8.918,0.48L8.918,1.726L10.266,1.726L10.266,4.824L11.512,4.824L11.512,1.726L12.864,1.726L12.863,0.48Z" style="fill:white;fill-rule:nonzero;"/>
    </g>
    <g id="Artboard2" transform="matrix(1,0,0,1,-71.258,0)">
        <rect x="71.258" y="0" width="21.258" height="21.258" style="fill:none;"/>
    </g>
</svg>
