<?xml version="1.0" encoding="UTF-8" standalone="no"?>
<!DOCTYPE svg PUBLIC "-//W3C//DTD SVG 1.1//EN" "http://www.w3.org/Graphics/SVG/1.1/DTD/svg11.dtd">
<svg width="100%" height="100%" viewBox="0 0 22 19" version="1.1" xmlns="http://www.w3.org/2000/svg" xmlns:xlink="http://www.w3.org/1999/xlink" xml:space="preserve" xmlns:serif="http://www.serif.com/" style="fill-rule:evenodd;clip-rule:evenodd;stroke-linejoin:round;stroke-miterlimit:2;">
    <g transform="matrix(1,0,0,1,-0.262,-0.48)">
        <path d="M11.516,14.531C11.879,14.32 12.305,14.199 12.762,14.199L20.274,14.199L20.274,1.726L12.762,1.726C12.074,1.726 11.512,2.285 11.512,2.972L11.516,14.531ZM10.266,2.973C10.266,2.285 9.707,1.727 9.02,1.727L1.508,1.727L1.508,14.2L9.02,14.2C9.473,14.2 9.899,14.321 10.266,14.532L10.266,2.973ZM9.02,15.445L0.262,15.445L0.262,0.48L9.02,0.48C9.77,0.48 10.434,0.816 10.891,1.339C11.348,0.816 12.012,0.48 12.762,0.48L21.52,0.48L21.52,15.445L12.762,15.445C12.016,15.445 11.348,15.773 10.891,16.289C10.434,15.773 9.766,15.445 9.02,15.445M9.02,16.691C9.766,16.691 10.434,17.019 10.891,17.535C11.348,17.019 12.016,16.691 12.762,16.691L21.524,16.691L20.274,17.937L12.762,17.941C12.016,17.941 11.348,18.265 10.891,18.781C10.434,18.265 9.766,17.941 9.02,17.941L1.508,17.937L0.262,16.691L9.02,16.691ZM2.754,5.469L9.02,5.469L9.02,4.219L2.754,4.219L2.754,5.469ZM2.754,7.965L9.02,7.965L9.02,6.715L2.754,6.715L2.754,7.965ZM2.754,10.457L9.02,10.457L9.02,9.207L2.754,9.207L2.754,10.457Z" style="fill:white;fill-rule:nonzero;"/>
    </g>
</svg>
