<?xml version="1.0" encoding="UTF-8" standalone="no"?>
<!DOCTYPE svg PUBLIC "-//W3C//DTD SVG 1.1//EN" "http://www.w3.org/Graphics/SVG/1.1/DTD/svg11.dtd">
<svg width="100%" height="100%" viewBox="0 0 19 22" version="1.1" xmlns="http://www.w3.org/2000/svg" xmlns:xlink="http://www.w3.org/1999/xlink" xml:space="preserve" xmlns:serif="http://www.serif.com/" style="fill-rule:evenodd;clip-rule:evenodd;stroke-linejoin:round;stroke-miterlimit:2;">
    <g transform="matrix(1,0,0,1,-0.261,-0.48)">
        <path d="M17.777,20.492L1.507,20.492L1.507,0.48L0.261,0.48L0.261,21.738L19.027,21.738L17.777,20.492ZM2.754,19.246L4,19.246L4,8.48L2.754,8.48L2.754,19.246ZM5.246,19.246L6.496,19.246L6.496,12.461L5.246,12.461L5.246,19.246ZM7.742,19.246L8.992,19.246L8.992,8.48L7.742,8.48L7.742,19.246ZM10.238,19.246L11.484,19.246L11.484,5.832L10.238,5.832L10.238,19.246ZM12.73,19.246L13.98,19.246L13.98,13.785L12.73,13.785L12.73,19.246Z" style="fill:white;fill-rule:nonzero;"/>
    </g>
</svg>
