<?xml version="1.0" encoding="UTF-8" standalone="no"?>
<!DOCTYPE svg PUBLIC "-//W3C//DTD SVG 1.1//EN" "http://www.w3.org/Graphics/SVG/1.1/DTD/svg11.dtd">
<svg width="100%" height="100%" viewBox="0 0 16 22" version="1.1" xmlns="http://www.w3.org/2000/svg" xmlns:xlink="http://www.w3.org/1999/xlink" xml:space="preserve" xmlns:serif="http://www.serif.com/" style="fill-rule:evenodd;clip-rule:evenodd;stroke-linejoin:round;stroke-miterlimit:2;">
    <g transform="matrix(1,0,0,1,-0.262,-0.48)">
        <path d="M2.789,21.742L13.379,21.742L12.129,20.496L4.035,20.496L2.789,21.742ZM9.895,13.645L16.129,13.645L16.129,12.399L9.895,12.399L9.895,13.645ZM8.352,8.617L9.235,9.5L11.88,6.855L11.001,5.972L8.352,8.617ZM4.625,1.363L9.234,5.972L10.117,5.089L5.504,0.48L4.625,1.363ZM2.863,3.125L7.472,7.734L8.351,6.851L3.742,2.242L2.863,3.125ZM13.664,14.891C12.504,16.754 10.441,18 8.082,18C4.453,18 1.508,15.055 1.508,11.422C1.508,9.27 2.551,7.371 4.149,6.172L3.262,5.285C1.442,6.719 0.262,8.926 0.262,11.422C0.262,15.742 3.762,19.246 8.082,19.246C11.156,19.246 13.812,17.469 15.09,14.891L13.664,14.891ZM10.219,14.891C9.594,15.274 8.867,15.504 8.086,15.504C5.828,15.504 4.004,13.68 4.004,11.422C4.004,9.957 4.789,8.695 5.953,7.977L5.047,7.071C3.668,8.032 2.754,9.614 2.754,11.423C2.754,14.368 5.141,16.755 8.082,16.755C9.695,16.755 11.125,16.021 12.102,14.892L10.219,14.891Z" style="fill:white;fill-rule:nonzero;"/>
    </g>
    <g id="Artboard2" transform="matrix(1,0,0,1,-65.867,0)">
        <rect x="65.867" y="0" width="15.867" height="21.262" style="fill:none;"/>
    </g>
</svg>
