<?xml version="1.0" encoding="UTF-8" standalone="no"?>
<!DOCTYPE svg PUBLIC "-//W3C//DTD SVG 1.1//EN" "http://www.w3.org/Graphics/SVG/1.1/DTD/svg11.dtd">
<svg width="100%" height="100%" viewBox="0 0 265 108" version="1.1" xmlns="http://www.w3.org/2000/svg" xmlns:xlink="http://www.w3.org/1999/xlink" xml:space="preserve" xmlns:serif="http://www.serif.com/" style="fill-rule:evenodd;clip-rule:evenodd;stroke-linejoin:round;stroke-miterlimit:2;">
    <g id="Artboard1" transform="matrix(-1.286408,0,0,1.317073,347.330175,-172.536585)">
        <rect x="64" y="131" width="206" height="82" style="fill:none;"/>
        <g transform="matrix(0.94717,0,0,1,6.036977,0.793426)">
            <g>
                <g transform="matrix(0.820717,0,0,0.759259,102.573705,133.277778)">
                    <path d="M152.383,8.333L110.716,23.091L110.716,28.281L152.383,13.527L194.05,28.281L194.05,23.091L152.383,8.333ZM115.722,30.997L120.61,35.885L184.152,35.885L189.044,30.997L115.722,30.997ZM179.265,72.503L184.152,72.503L184.152,40.769L179.265,40.769L179.265,72.503ZM169.489,72.503L174.377,72.503L174.377,40.769L169.489,40.769L169.489,72.503ZM159.717,72.503L164.605,72.503L164.605,40.769L159.717,40.769L159.717,72.503ZM149.937,72.503L154.825,72.503L154.825,40.769L149.937,40.769L149.937,72.503ZM140.161,72.503L145.049,72.503L145.049,40.769L140.161,40.769L140.161,72.503ZM130.389,72.503L135.277,72.503L135.277,40.769L130.389,40.769L130.389,72.503ZM120.609,72.503L125.497,72.503L125.497,40.769L120.609,40.769L120.609,72.503ZM115.607,82.283L189.161,82.283L189.161,77.395L115.607,77.395L115.607,82.283ZM110.715,92.063L194.048,92.063L194.048,87.171L110.715,87.171L110.715,92.063Z" style="fill:rgb(19,46,83);fill-rule:nonzero;"/>
                </g>
                <g transform="matrix(0.820717,0,0,0.759259,69.74502,133.277778)">
                    <path d="M10.117,10.275L10.117,22.002L34.04,22.002L34.04,92.063L45.767,92.063L45.767,22.002L69.69,22.002L69.69,10.275L10.117,10.275Z" style="fill:rgb(19,46,83);fill-rule:nonzero;"/>
                    <rect x="10.117" y="33.728" width="11.727" height="58.334" style="fill:rgb(19,46,83);"/>
                    <rect x="57.963" y="33.728" width="11.727" height="58.334" style="fill:rgb(19,46,83);"/>
                </g>
            </g>
            <g transform="matrix(0.820717,0,0,0.759259,86.159363,133.277778)">
                <rect x="91.967" y="7.322" width="2.106" height="85.266" style="fill:rgb(19,46,83);"/>
            </g>
        </g>
    </g>
</svg>
