<svg height="88" viewBox="0 0 201 88" width="201" xmlns="http://www.w3.org/2000/svg"><g transform="translate(.97 .644)"><path d="m118.202759 15.152109h2.283354v14.821944h-2.283354z"/><path d="m113.638169 15.152109h2.283089v14.821944h-2.283089z"/><path d="m109.070931 15.152109h2.283354v14.821944h-2.283354z"/><path d="m104.503694 15.152109h2.283354v14.821944h-2.283354z"/><path d="m122.769997 15.152109h2.283089v14.821944h-2.283089z"/><path d="m127.337234 15.152109h2.283354v14.821944h-2.283354z"/><path d="m131.901824 15.152109h2.283354v14.821944h-2.283354z"/><path d="m102.165797 32.257407h34.357277v2.284943h-34.357277z"/><path d="m134.186767 12.8687548h-29.683073l-2.282295-2.2830893h34.247663z"/><path d="m99.883502 36.82385h38.923456v2.284943h-38.923456z"/><path d="m138.806958 6.892425-19.460404-6.892425-19.4630517 6.892425v2.42473987l19.4630517-6.89189547 19.460404 6.89189547z"/><path d="m118.779952 57.0594932h-4.919379v7.3269083h-2.284942v-16.1439275h2.284942v6.8802457h4.919379v-6.8802457h2.284942v16.1439275h-2.284942z"/><path d="m168.815695 72.6794461c1.008764-.003442 1.959279.3269877 2.396145.6703911v-2.0577723c-.436866-.2684741-1.509174-.5671318-2.59472-.5671318-3.031587 0-4.699622 1.7236358-4.699622 4.2235696 0 2.0847786.881676 3.0858641 2.303477 4.3125315l1.300008 1.1228785c1.072308.8978263 1.739522 1.5896635 1.739522 2.932299 0 1.5700707-1.037889 2.1920093-2.594721 2.1920093-1.180863 0-2.160502-.3269877-2.724456-.7169901v2.0940454c.495115.2862135 1.530355.5811644 2.928327.5775263 3.023644-.0072173 4.691678-1.7255578 4.694338-4.2233734.002636-2.08319-.881687-3.0861289-2.303488-4.3109429l-1.300008-1.1247319c-1.074956-.9205963-1.74217-1.5859567-1.739522-2.9270036.005295-1.5769547 1.03524-2.1935979 2.59472-2.1973047"/><path d="m154.785671 72.9600996v5.6895867h1.21793c1.78718 0 2.981281-.3754402 2.981281-2.8573699 0-2.4602186-1.194101-2.8322168-2.981281-2.8322168zm-2.284943-1.9383622h3.725277c2.981281 0 5.115307 1.1194366 5.115307 4.770579 0 2.5568588-1.239112 3.7975589-2.803887 4.369986l3.42609 7.0052159h-2.607959l-3.031587-6.5831766h-1.538298v6.5831766h-2.284943z"/><path d="m99.8835023 82.2989754v-11.2753846h2.2849427v11.3754666c0 2.3852896.820779 3.0789801 2.483518 3.0789801 1.665387 0 2.483518-.6936905 2.483518-3.0789801v-11.3754666h2.284943v11.2753846c0 3.6760306-1.538298 5.1672006-4.768461 5.1672006-3.27782 0-4.7684607-1.4408642-4.7684607-5.1672006"/><path d="m112.375228 71.0235908h2.634436l5.091477 12.865048c-.174746-1.3161587-.323016-2.8557812-.323016-4.2969101v-8.5681379h2.186979v16.1441923h-2.634436l-5.141783-12.9148243c.198576 1.315894.373322 2.8804045.373322 4.3466864v8.5681379h-2.186979z"/><path d="m125.197914 71.023591h2.285207v16.143928h-2.285207z"/><path d="m129.606291 71.0235908h2.385554l2.036061 8.39498c.299188 1.2677063.669862 3.4025259.894914 5.0920067.222405-1.6894808.595727-3.8243004.942572-5.0920067l2.012233-8.39498h2.308771l-4.095951 16.1441923h-2.385555z"/><path d="m142.309831 71.0235908h7.551166v1.9383621h-5.266224v4.9418836h4.24687v1.9116206h-4.24687v5.4158172h5.266224v1.9365088h-7.551166z"/><path d="m174.275199 71.023591h2.285207v16.143928h-2.285207z"/><path d="m99.3883873 56.3154968c0-6.3581244 1.6865687-8.3716804 5.8857797-8.3716804 1.191453 0 2.457041.3238105 3.00511.6473563v2.1099314c-.595727-.3468453-1.739522-.7204321-2.833012-.7204321-2.682093 0-3.6988.9939368-3.6988 6.3348248 0 5.2889937.720167 6.381424 3.055416 6.381424.720167 0 1.315894-.0982288 1.760703-.2234637v-5.3893405h-2.382907v-1.936244h4.66785v8.7166724c-.471286.2983929-2.359078.8205142-4.021817.8205142-4.37131 0-5.4383227-2.2849427-5.4383227-8.3695624"/><path d="m124.297704 48.242474h7.551167v1.9383621h-5.263576v4.9418836h4.246869v1.9116206h-4.246869v5.4158172h5.263576v1.9365088h-7.551167z"/><path d="m134.488602 48.242474h2.634435l5.091478 12.8647833c-.174747-1.315894-.323017-2.8555165-.323017-4.2966454v-8.5681379h2.184331v16.1441923h-2.631788l-5.141783-12.9150891c.198576 1.3161588.373323 2.8806694.373323 4.3466865v8.5684026h-2.186979z"/><path d="m146.167492 48.242474h9.264211v1.9383621h-3.500225v14.2058302h-2.28759v-14.2058302h-3.476396z"/><path d="m193.317271 80.4628134-4.421616-9.4392226h2.509995l1.911621 4.3466864c.447457 1.042654.871085 2.1599725 1.143795 3.1541741.296539-.9942016.743996-2.1115201 1.191453-3.1541741l1.911621-4.3466864h2.43586l-4.397787 9.4392226v6.7049697h-2.284942z"/><path d="m178.731235 71.0235908h9.264211v1.9383621h-3.502873v14.2058302h-2.284942v-14.2058302h-3.476396z"/><path d="m21.4726363 82.3934973h-6.9289629v-6.3959861c.0105907-1.1154651.1588604-1.9809897.4421615-2.5968387.5030581-1.1032858 1.4323917-1.6555906 2.7853531-1.6555906 1.5965474 0 2.6794461.5695147 3.2434007 1.7080146.3044825.6274987.4580476 1.5046731.4580476 2.6315232zm-11.2314332 0h-5.72956657v-5.652784c0-1.2446716.13767905-2.2682623.4077418-3.0707723.3865604-.9306575 1.18615796-1.3958538 2.39614498-1.3958538 1.09348937 0 1.85337182.3521407 2.28229501 1.0556276.42892318.7037518.64338478 1.6195822.64338478 2.7480209zm14.0882735-13.133787c-.5533639-.7360533-1.2364638-1.3495194-2.0466521-1.8403982-1.2232254-.7710026-2.6026635-1.1567687-4.1436098-1.1567687-1.4906405 0-2.761524.3373136-3.8073552 1.0122057-1.0458313.6748921-1.8083614 1.6757129-2.2928857 3.0016681-.4448093-.8729382-.9399243-1.5335328-1.4800498-1.981784-.96375336-.8022453-2.23728456-1.2036326-3.82588897-1.2036326-1.53829861 0-2.85948794.3979454-3.96621568 1.1927771-1.79777066 1.3211893-2.71916122 3.5661521-2.76681935 6.7346236v12.5579179h25.9842728v-11.708544c0-1.3203951-.1164976-2.54415-.3521406-3.6720591-.235643-1.1276444-.6698616-2.1062247-1.3026556-2.9360058"/><path d="m0 40.9727554v7.0163362l10.7071937 10.0399799h-10.7071937v5.3416823h25.9842728v-5.3416823h-8.6896661l-2.6529694-2.6151077 11.3426355-8.0063014v-6.9813869l-15.2982605 11.2102518z"/><path d="m20.7392306.11358522v5.24980804h10.7124891v82.21292594h5.2529852v-82.21292594h10.7124891v-5.24980804z"/><path d="m42.164209 10.615319h5.251397v76.961h-5.251397z"/><path d="m20.7392306 38.128624 5.2529852-3.8446874v-23.6691467h-5.2529852z"/><path d="m72.943419.11332h1v87.463793h-1z"/></g></svg>